# xmcd
#
# Track frame offsets:
#	150
#	18866
#	37365
#	57277
#	71987
#	90081
#	102575
#	113281
#
# Disc length: 1771 seconds
#
# Revision: 1
# Processed by: cddbd v1.5PL3 Copyright (c) Steve Scherf et al.
# Submitted via: audiograbber 1.82.02
#
DISCID=6206e908
DTITLE=Kris Wiley - Old, New, Borrowed And Blue
DYEAR=1997
DGENRE=Blues
TTITLE0=If I Don't Get To Play My Guitar
TTITLE1=How Come It Feels So Good?
TTITLE2=Turnin' The Table
TTITLE3=I Don't Live Here Anymore
TTITLE4=If Loving Me Is Too Hard
TTITLE5=So Good To Me
TTITLE6=Nobody's Business
TTITLE7=Good Thang
EXTD=
EXTT0=
EXTT1=
EXTT2=
EXTT3=
EXTT4=
EXTT5=
EXTT6=
EXTT7=
PLAYORDER=
